<svg width="179" height="43" viewBox="0 0 179 43" fill="none" xmlns="http://www.w3.org/2000/svg">
<g clip-path="url(#clip0_344_11265)">
<path d="M18.8023 6.90181L0.700389 24.4198C-0.13273 25.226 -0.13273 26.5332 0.700389 27.3395C1.53351 28.1457 2.88426 28.1457 3.71738 27.3395L21.8193 9.82147C22.6524 9.01523 22.6524 7.70805 21.8193 6.90181C20.9862 6.09557 19.6354 6.09557 18.8023 6.90181Z" fill="#3A57E8"/>
<path d="M27.8521 15.6609L9.75019 33.1789C8.91707 33.9851 8.91708 35.2923 9.75019 36.0985C10.5833 36.9048 11.9341 36.9048 12.7672 36.0985L30.8691 18.5805C31.7022 17.7743 31.7022 16.4671 30.8691 15.6609C30.036 14.8546 28.6852 14.8546 27.8521 15.6609Z" fill="#3A57E8"/>
<path d="M21.7968 33.1584L12.7458 24.3994C11.9127 23.5932 10.5619 23.5932 9.72881 24.3994C8.89569 25.2057 8.89569 26.5128 9.72881 27.3191L18.7798 36.0781C19.6129 36.8843 20.9636 36.8843 21.7968 36.0781C22.6299 35.2718 22.6299 33.9647 21.7968 33.1584Z" fill="#3A57E8"/>
<path d="M30.8707 24.4198L12.7687 6.90185C11.9356 6.09561 10.5849 6.09561 9.75176 6.90185C8.91864 7.70809 8.91864 9.01527 9.75176 9.82152L27.8537 27.3395C28.6868 28.1458 30.0376 28.1458 30.8707 27.3395C31.7038 26.5333 31.7038 25.2261 30.8707 24.4198Z" fill="#3A57E8"/>
</g>
<path d="M50.6367 34V10H54.2578V20.4297H66.2227V10H69.8555V34H66.2227V23.5352H54.2578V34H50.6367ZM83.0897 34.3633C81.4022 34.3633 79.9295 33.9766 78.6717 33.2031C77.4139 32.4297 76.4373 31.3477 75.742 29.957C75.0467 28.5664 74.6991 26.9414 74.6991 25.082C74.6991 23.2148 75.0467 21.582 75.742 20.1836C76.4373 18.7852 77.4139 17.6992 78.6717 16.9258C79.9295 16.1523 81.4022 15.7656 83.0897 15.7656C84.7772 15.7656 86.2498 16.1523 87.5077 16.9258C88.7655 17.6992 89.742 18.7852 90.4373 20.1836C91.1327 21.582 91.4803 23.2148 91.4803 25.082C91.4803 26.9414 91.1327 28.5664 90.4373 29.957C89.742 31.3477 88.7655 32.4297 87.5077 33.2031C86.2498 33.9766 84.7772 34.3633 83.0897 34.3633ZM83.1014 31.4219C84.1952 31.4219 85.1014 31.1328 85.8202 30.5547C86.5389 29.9766 87.0702 29.207 87.4139 28.2461C87.7655 27.2852 87.9413 26.2266 87.9413 25.0703C87.9413 23.9219 87.7655 22.8672 87.4139 21.9062C87.0702 20.9375 86.5389 20.1602 85.8202 19.5742C85.1014 18.9883 84.1952 18.6953 83.1014 18.6953C81.9998 18.6953 81.0858 18.9883 80.3592 19.5742C79.6405 20.1602 79.1053 20.9375 78.7538 21.9062C78.41 22.8672 78.2381 23.9219 78.2381 25.0703C78.2381 26.2266 78.41 27.2852 78.7538 28.2461C79.1053 29.207 79.6405 29.9766 80.3592 30.5547C81.0858 31.1328 81.9998 31.4219 83.1014 31.4219ZM96.0514 40.75V16H99.4733V18.918H99.7663C99.9694 18.543 100.262 18.1094 100.645 17.6172C101.028 17.125 101.559 16.6953 102.239 16.3281C102.919 15.9531 103.817 15.7656 104.934 15.7656C106.387 15.7656 107.684 16.1328 108.825 16.8672C109.966 17.6016 110.86 18.6602 111.508 20.043C112.165 21.4258 112.493 23.0898 112.493 25.0352C112.493 26.9805 112.169 28.6484 111.52 30.0391C110.872 31.4219 109.981 32.4883 108.848 33.2383C107.716 33.9805 106.423 34.3516 104.969 34.3516C103.876 34.3516 102.981 34.168 102.286 33.8008C101.598 33.4336 101.059 33.0039 100.669 32.5117C100.278 32.0195 99.9772 31.582 99.7663 31.1992H99.5554V40.75H96.0514ZM99.485 25C99.485 26.2656 99.6686 27.375 100.036 28.3281C100.403 29.2812 100.934 30.0273 101.63 30.5664C102.325 31.0977 103.176 31.3633 104.184 31.3633C105.231 31.3633 106.106 31.0859 106.809 30.5312C107.512 29.9687 108.044 29.207 108.403 28.2461C108.77 27.2852 108.954 26.2031 108.954 25C108.954 23.8125 108.774 22.7461 108.415 21.8008C108.063 20.8555 107.532 20.1094 106.821 19.5625C106.118 19.0156 105.239 18.7422 104.184 18.7422C103.169 18.7422 102.309 19.0039 101.606 19.5273C100.911 20.0508 100.383 20.7812 100.024 21.7187C99.6647 22.6562 99.485 23.75 99.485 25ZM124.836 34.3633C123.063 34.3633 121.536 33.9844 120.254 33.2266C118.981 32.4609 117.997 31.3867 117.301 30.0039C116.614 28.6133 116.27 26.9844 116.27 25.1172C116.27 23.2734 116.614 21.6484 117.301 20.2422C117.997 18.8359 118.965 17.7383 120.208 16.9492C121.458 16.1602 122.918 15.7656 124.59 15.7656C125.606 15.7656 126.59 15.9336 127.543 16.2695C128.497 16.6055 129.352 17.1328 130.11 17.8516C130.868 18.5703 131.465 19.5039 131.903 20.6523C132.34 21.793 132.559 23.1797 132.559 24.8125V26.0547H118.251V23.4297H129.126C129.126 22.5078 128.938 21.6914 128.563 20.9805C128.188 20.2617 127.661 19.6953 126.981 19.2812C126.309 18.8672 125.52 18.6602 124.614 18.6602C123.629 18.6602 122.77 18.9023 122.036 19.3867C121.309 19.8633 120.747 20.4883 120.348 21.2617C119.958 22.0273 119.762 22.8594 119.762 23.7578V25.8086C119.762 27.0117 119.973 28.0352 120.395 28.8789C120.825 29.7227 121.422 30.3672 122.188 30.8125C122.954 31.25 123.848 31.4687 124.872 31.4687C125.536 31.4687 126.141 31.375 126.688 31.1875C127.235 30.9922 127.708 30.7031 128.106 30.3203C128.504 29.9375 128.809 29.4648 129.02 28.9023L132.336 29.5C132.071 30.4766 131.594 31.332 130.907 32.0664C130.227 32.793 129.372 33.3594 128.34 33.7656C127.317 34.1641 126.149 34.3633 124.836 34.3633ZM162.215 10H165.848V25.7852C165.848 27.4648 165.453 28.9531 164.664 30.25C163.875 31.5391 162.766 32.5547 161.336 33.2969C159.906 34.0313 158.231 34.3984 156.309 34.3984C154.395 34.3984 152.723 34.0313 151.293 33.2969C149.863 32.5547 148.754 31.5391 147.965 30.25C147.176 28.9531 146.781 27.4648 146.781 25.7852V10H150.403V25.4922C150.403 26.5781 150.641 27.543 151.117 28.3867C151.602 29.2305 152.285 29.8945 153.168 30.3789C154.051 30.8555 155.098 31.0937 156.309 31.0937C157.528 31.0937 158.578 30.8555 159.461 30.3789C160.352 29.8945 161.031 29.2305 161.5 28.3867C161.977 27.543 162.215 26.5781 162.215 25.4922V10ZM175.394 10V34H171.772V10H175.394Z" fill="#232D42"/>
<defs>
<clipPath id="clip0_344_11265">
<rect width="32" height="32" fill="white" transform="translate(0 5.5)"/>
</clipPath>
</defs>
</svg>
